{
	"patcher" : 	{
		"fileversion" : 1,
		"appversion" : 		{
			"major" : 8,
			"minor" : 1,
			"revision" : 11,
			"architecture" : "x64",
			"modernui" : 1
		}
,
		"classnamespace" : "box",
		"rect" : [ 130.0, 79.0, 1389.0, 937.0 ],
		"bglocked" : 0,
		"openinpresentation" : 0,
		"default_fontsize" : 18.0,
		"default_fontface" : 0,
		"default_fontname" : "Arial",
		"gridonopen" : 1,
		"gridsize" : [ 15.0, 15.0 ],
		"gridsnaponopen" : 1,
		"objectsnaponopen" : 1,
		"statusbarvisible" : 2,
		"toolbarvisible" : 1,
		"lefttoolbarpinned" : 0,
		"toptoolbarpinned" : 0,
		"righttoolbarpinned" : 0,
		"bottomtoolbarpinned" : 0,
		"toolbars_unpinned_last_save" : 0,
		"tallnewobj" : 0,
		"boxanimatetime" : 200,
		"enablehscroll" : 1,
		"enablevscroll" : 1,
		"devicewidth" : 0.0,
		"description" : "",
		"digest" : "",
		"tags" : "",
		"style" : "",
		"subpatcher_template" : "newtemplate",
		"assistshowspatchername" : 0,
		"boxes" : [ 			{
				"box" : 				{
					"id" : "obj-44",
					"maxclass" : "comment",
					"numinlets" : 1,
					"numoutlets" : 0,
					"patching_rect" : [ 759.0, 148.0, 210.0, 27.0 ],
					"text" : "discrete cosine transform"
				}

			}
, 			{
				"box" : 				{
					"format" : 6,
					"id" : "obj-40",
					"maxclass" : "flonum",
					"numinlets" : 1,
					"numoutlets" : 2,
					"outlettype" : [ "", "bang" ],
					"parameter_enable" : 0,
					"patching_rect" : [ 1139.0, 468.0, 85.0, 29.0 ]
				}

			}
, 			{
				"box" : 				{
					"id" : "obj-42",
					"maxclass" : "message",
					"numinlets" : 2,
					"numoutlets" : 1,
					"outlettype" : [ "" ],
					"patching_rect" : [ 870.0, 456.0, 226.0, 29.0 ],
					"text" : "slide_up $1, slide_down $1"
				}

			}
, 			{
				"box" : 				{
					"id" : "obj-39",
					"maxclass" : "newobj",
					"numinlets" : 1,
					"numoutlets" : 2,
					"outlettype" : [ "jit_matrix", "" ],
					"patching_rect" : [ 539.0, 513.0, 64.0, 29.0 ],
					"text" : "jit.slide"
				}

			}
, 			{
				"box" : 				{
					"format" : 6,
					"id" : "obj-38",
					"maxclass" : "flonum",
					"numinlets" : 1,
					"numoutlets" : 2,
					"outlettype" : [ "", "bang" ],
					"parameter_enable" : 0,
					"patching_rect" : [ 1139.0, 517.0, 85.0, 29.0 ]
				}

			}
, 			{
				"box" : 				{
					"id" : "obj-36",
					"maxclass" : "message",
					"numinlets" : 2,
					"numoutlets" : 1,
					"outlettype" : [ "" ],
					"patching_rect" : [ 870.0, 505.0, 226.0, 29.0 ],
					"text" : "slide_up $1, slide_down $1"
				}

			}
, 			{
				"box" : 				{
					"id" : "obj-34",
					"maxclass" : "newobj",
					"numinlets" : 1,
					"numoutlets" : 2,
					"outlettype" : [ "jit_matrix", "" ],
					"patching_rect" : [ 746.0, 521.0, 64.0, 29.0 ],
					"text" : "jit.slide"
				}

			}
, 			{
				"box" : 				{
					"format" : 6,
					"id" : "obj-33",
					"maxclass" : "flonum",
					"numinlets" : 1,
					"numoutlets" : 2,
					"outlettype" : [ "", "bang" ],
					"parameter_enable" : 0,
					"patching_rect" : [ 522.0, 437.0, 88.0, 29.0 ]
				}

			}
, 			{
				"box" : 				{
					"id" : "obj-22",
					"maxclass" : "newobj",
					"numinlets" : 2,
					"numoutlets" : 2,
					"outlettype" : [ "jit_matrix", "" ],
					"patching_rect" : [ 494.0, 478.0, 37.0, 29.0 ],
					"text" : "jit.>"
				}

			}
, 			{
				"box" : 				{
					"id" : "obj-21",
					"maxclass" : "jit.pwindow",
					"numinlets" : 1,
					"numoutlets" : 2,
					"outlettype" : [ "jit_matrix", "" ],
					"patching_rect" : [ 1007.0, 263.0, 306.0, 174.0 ]
				}

			}
, 			{
				"box" : 				{
					"id" : "obj-20",
					"maxclass" : "comment",
					"numinlets" : 1,
					"numoutlets" : 0,
					"patching_rect" : [ 728.0, 656.0, 73.0, 27.0 ],
					"text" : "poltocar"
				}

			}
, 			{
				"box" : 				{
					"id" : "obj-19",
					"maxclass" : "comment",
					"numinlets" : 1,
					"numoutlets" : 0,
					"patching_rect" : [ 614.0, 221.0, 73.0, 27.0 ],
					"text" : "cartopol"
				}

			}
, 			{
				"box" : 				{
					"id" : "obj-5",
					"maxclass" : "jit.pwindow",
					"numinlets" : 1,
					"numoutlets" : 2,
					"outlettype" : [ "jit_matrix", "" ],
					"patching_rect" : [ 693.0, 263.0, 306.0, 174.0 ]
				}

			}
, 			{
				"box" : 				{
					"id" : "obj-41",
					"maxclass" : "newobj",
					"numinlets" : 1,
					"numoutlets" : 3,
					"outlettype" : [ "jit_matrix", "jit_matrix", "" ],
					"patching_rect" : [ 479.0, 779.0, 100.0, 29.0 ],
					"text" : "jit.unpack 2"
				}

			}
, 			{
				"box" : 				{
					"id" : "obj-30",
					"maxclass" : "newobj",
					"numinlets" : 2,
					"numoutlets" : 2,
					"outlettype" : [ "jit_matrix", "" ],
					"patching_rect" : [ 722.0, 582.0, 50.0, 29.0 ],
					"text" : "jit.sin"
				}

			}
, 			{
				"box" : 				{
					"id" : "obj-31",
					"maxclass" : "newobj",
					"numinlets" : 2,
					"numoutlets" : 2,
					"outlettype" : [ "jit_matrix", "" ],
					"patching_rect" : [ 650.0, 625.0, 34.0, 29.0 ],
					"text" : "jit.*"
				}

			}
, 			{
				"box" : 				{
					"id" : "obj-29",
					"maxclass" : "newobj",
					"numinlets" : 2,
					"numoutlets" : 2,
					"outlettype" : [ "jit_matrix", "" ],
					"patching_rect" : [ 539.0, 582.0, 55.0, 29.0 ],
					"text" : "jit.cos"
				}

			}
, 			{
				"box" : 				{
					"id" : "obj-28",
					"maxclass" : "newobj",
					"numinlets" : 2,
					"numoutlets" : 2,
					"outlettype" : [ "jit_matrix", "" ],
					"patching_rect" : [ 467.0, 625.0, 34.0, 29.0 ],
					"text" : "jit.*"
				}

			}
, 			{
				"box" : 				{
					"id" : "obj-27",
					"maxclass" : "newobj",
					"numinlets" : 2,
					"numoutlets" : 2,
					"outlettype" : [ "jit_matrix", "" ],
					"patching_rect" : [ 563.0, 162.0, 72.0, 29.0 ],
					"text" : "jit.atan2"
				}

			}
, 			{
				"box" : 				{
					"id" : "obj-26",
					"maxclass" : "newobj",
					"numinlets" : 2,
					"numoutlets" : 2,
					"outlettype" : [ "jit_matrix", "" ],
					"patching_rect" : [ 460.0, 254.0, 57.0, 29.0 ],
					"text" : "jit.sqrt"
				}

			}
, 			{
				"box" : 				{
					"id" : "obj-25",
					"maxclass" : "newobj",
					"numinlets" : 2,
					"numoutlets" : 2,
					"outlettype" : [ "jit_matrix", "" ],
					"patching_rect" : [ 457.0, 207.0, 37.0, 29.0 ],
					"text" : "jit.+"
				}

			}
, 			{
				"box" : 				{
					"id" : "obj-24",
					"maxclass" : "newobj",
					"numinlets" : 2,
					"numoutlets" : 2,
					"outlettype" : [ "jit_matrix", "" ],
					"patching_rect" : [ 503.0, 154.0, 34.0, 29.0 ],
					"text" : "jit.*"
				}

			}
, 			{
				"box" : 				{
					"id" : "obj-23",
					"maxclass" : "newobj",
					"numinlets" : 2,
					"numoutlets" : 2,
					"outlettype" : [ "jit_matrix", "" ],
					"patching_rect" : [ 457.0, 154.0, 34.0, 29.0 ],
					"text" : "jit.*"
				}

			}
, 			{
				"box" : 				{
					"id" : "obj-17",
					"maxclass" : "jit.pwindow",
					"numinlets" : 1,
					"numoutlets" : 2,
					"outlettype" : [ "jit_matrix", "" ],
					"patching_rect" : [ 479.0, 835.0, 306.0, 174.0 ]
				}

			}
, 			{
				"box" : 				{
					"id" : "obj-16",
					"maxclass" : "newobj",
					"numinlets" : 1,
					"numoutlets" : 2,
					"outlettype" : [ "jit_matrix", "" ],
					"patching_rect" : [ 479.0, 736.0, 137.0, 29.0 ],
					"text" : "jit.fft @inverse 1"
				}

			}
, 			{
				"box" : 				{
					"id" : "obj-15",
					"maxclass" : "newobj",
					"numinlets" : 2,
					"numoutlets" : 2,
					"outlettype" : [ "jit_matrix", "" ],
					"patching_rect" : [ 467.0, 681.0, 80.0, 29.0 ],
					"text" : "jit.pack 2"
				}

			}
, 			{
				"box" : 				{
					"id" : "obj-12",
					"maxclass" : "newobj",
					"numinlets" : 1,
					"numoutlets" : 3,
					"outlettype" : [ "jit_matrix", "jit_matrix", "" ],
					"patching_rect" : [ 457.0, 86.0, 100.0, 29.0 ],
					"text" : "jit.unpack 2"
				}

			}
, 			{
				"box" : 				{
					"id" : "obj-10",
					"maxclass" : "newobj",
					"numinlets" : 1,
					"numoutlets" : 2,
					"outlettype" : [ "jit_matrix", "" ],
					"patching_rect" : [ 110.0, 288.0, 220.0, 29.0 ],
					"text" : "jit.matrix 1 float32 256 256"
				}

			}
, 			{
				"box" : 				{
					"id" : "obj-9",
					"maxclass" : "newobj",
					"numinlets" : 1,
					"numoutlets" : 2,
					"outlettype" : [ "jit_matrix", "" ],
					"patching_rect" : [ 452.0, 33.0, 41.0, 29.0 ],
					"text" : "jit.fft"
				}

			}
, 			{
				"box" : 				{
					"id" : "obj-8",
					"maxclass" : "newobj",
					"numinlets" : 1,
					"numoutlets" : 2,
					"outlettype" : [ "jit_matrix", "" ],
					"patching_rect" : [ 105.0, 252.0, 102.0, 29.0 ],
					"text" : "jit.rgb2luma"
				}

			}
, 			{
				"box" : 				{
					"id" : "obj-7",
					"maxclass" : "jit.pwindow",
					"numinlets" : 1,
					"numoutlets" : 2,
					"outlettype" : [ "jit_matrix", "" ],
					"patching_rect" : [ 116.0, 341.0, 306.0, 174.0 ]
				}

			}
, 			{
				"box" : 				{
					"id" : "obj-6",
					"maxclass" : "toggle",
					"numinlets" : 1,
					"numoutlets" : 1,
					"outlettype" : [ "int" ],
					"parameter_enable" : 0,
					"patching_rect" : [ 28.0, 46.0, 24.0, 24.0 ]
				}

			}
, 			{
				"box" : 				{
					"id" : "obj-4",
					"maxclass" : "newobj",
					"numinlets" : 2,
					"numoutlets" : 1,
					"outlettype" : [ "bang" ],
					"patching_rect" : [ 23.0, 91.0, 80.0, 29.0 ],
					"text" : "qmetro 2"
				}

			}
, 			{
				"box" : 				{
					"id" : "obj-3",
					"maxclass" : "message",
					"numinlets" : 2,
					"numoutlets" : 1,
					"outlettype" : [ "" ],
					"patching_rect" : [ 146.0, 86.0, 49.0, 29.0 ],
					"text" : "open"
				}

			}
, 			{
				"box" : 				{
					"id" : "obj-1",
					"maxclass" : "newobj",
					"numinlets" : 1,
					"numoutlets" : 2,
					"outlettype" : [ "jit_matrix", "" ],
					"patching_rect" : [ 116.0, 183.0, 63.0, 29.0 ],
					"text" : "jit.grab"
				}

			}
 ],
		"lines" : [ 			{
				"patchline" : 				{
					"destination" : [ "obj-8", 0 ],
					"source" : [ "obj-1", 0 ]
				}

			}
, 			{
				"patchline" : 				{
					"destination" : [ "obj-7", 0 ],
					"source" : [ "obj-10", 0 ]
				}

			}
, 			{
				"patchline" : 				{
					"destination" : [ "obj-23", 1 ],
					"order" : 1,
					"source" : [ "obj-12", 0 ]
				}

			}
, 			{
				"patchline" : 				{
					"destination" : [ "obj-23", 0 ],
					"order" : 2,
					"source" : [ "obj-12", 0 ]
				}

			}
, 			{
				"patchline" : 				{
					"destination" : [ "obj-24", 1 ],
					"order" : 1,
					"source" : [ "obj-12", 1 ]
				}

			}
, 			{
				"patchline" : 				{
					"destination" : [ "obj-24", 0 ],
					"order" : 2,
					"source" : [ "obj-12", 1 ]
				}

			}
, 			{
				"patchline" : 				{
					"destination" : [ "obj-27", 0 ],
					"order" : 0,
					"source" : [ "obj-12", 1 ]
				}

			}
, 			{
				"patchline" : 				{
					"destination" : [ "obj-27", 1 ],
					"order" : 0,
					"source" : [ "obj-12", 0 ]
				}

			}
, 			{
				"patchline" : 				{
					"destination" : [ "obj-16", 0 ],
					"source" : [ "obj-15", 0 ]
				}

			}
, 			{
				"patchline" : 				{
					"destination" : [ "obj-41", 0 ],
					"source" : [ "obj-16", 0 ]
				}

			}
, 			{
				"patchline" : 				{
					"destination" : [ "obj-25", 0 ],
					"source" : [ "obj-23", 0 ]
				}

			}
, 			{
				"patchline" : 				{
					"destination" : [ "obj-25", 1 ],
					"source" : [ "obj-24", 0 ]
				}

			}
, 			{
				"patchline" : 				{
					"destination" : [ "obj-26", 0 ],
					"source" : [ "obj-25", 0 ]
				}

			}
, 			{
				"patchline" : 				{
					"destination" : [ "obj-39", 0 ],
					"order" : 1,
					"source" : [ "obj-26", 0 ]
				}

			}
, 			{
				"patchline" : 				{
					"destination" : [ "obj-5", 0 ],
					"order" : 0,
					"source" : [ "obj-26", 0 ]
				}

			}
, 			{
				"patchline" : 				{
					"destination" : [ "obj-21", 0 ],
					"order" : 0,
					"source" : [ "obj-27", 0 ]
				}

			}
, 			{
				"patchline" : 				{
					"destination" : [ "obj-34", 0 ],
					"order" : 1,
					"source" : [ "obj-27", 0 ]
				}

			}
, 			{
				"patchline" : 				{
					"destination" : [ "obj-15", 0 ],
					"source" : [ "obj-28", 0 ]
				}

			}
, 			{
				"patchline" : 				{
					"destination" : [ "obj-28", 1 ],
					"source" : [ "obj-29", 0 ]
				}

			}
, 			{
				"patchline" : 				{
					"destination" : [ "obj-1", 0 ],
					"source" : [ "obj-3", 0 ]
				}

			}
, 			{
				"patchline" : 				{
					"destination" : [ "obj-31", 1 ],
					"source" : [ "obj-30", 0 ]
				}

			}
, 			{
				"patchline" : 				{
					"destination" : [ "obj-15", 1 ],
					"source" : [ "obj-31", 0 ]
				}

			}
, 			{
				"patchline" : 				{
					"destination" : [ "obj-22", 1 ],
					"source" : [ "obj-33", 0 ]
				}

			}
, 			{
				"patchline" : 				{
					"destination" : [ "obj-29", 0 ],
					"order" : 1,
					"source" : [ "obj-34", 0 ]
				}

			}
, 			{
				"patchline" : 				{
					"destination" : [ "obj-30", 0 ],
					"order" : 0,
					"source" : [ "obj-34", 0 ]
				}

			}
, 			{
				"patchline" : 				{
					"destination" : [ "obj-34", 0 ],
					"source" : [ "obj-36", 0 ]
				}

			}
, 			{
				"patchline" : 				{
					"destination" : [ "obj-36", 0 ],
					"source" : [ "obj-38", 0 ]
				}

			}
, 			{
				"patchline" : 				{
					"destination" : [ "obj-28", 0 ],
					"order" : 1,
					"source" : [ "obj-39", 0 ]
				}

			}
, 			{
				"patchline" : 				{
					"destination" : [ "obj-31", 0 ],
					"order" : 0,
					"source" : [ "obj-39", 0 ]
				}

			}
, 			{
				"patchline" : 				{
					"destination" : [ "obj-1", 0 ],
					"source" : [ "obj-4", 0 ]
				}

			}
, 			{
				"patchline" : 				{
					"destination" : [ "obj-42", 0 ],
					"source" : [ "obj-40", 0 ]
				}

			}
, 			{
				"patchline" : 				{
					"destination" : [ "obj-17", 0 ],
					"source" : [ "obj-41", 0 ]
				}

			}
, 			{
				"patchline" : 				{
					"destination" : [ "obj-39", 0 ],
					"source" : [ "obj-42", 0 ]
				}

			}
, 			{
				"patchline" : 				{
					"destination" : [ "obj-4", 0 ],
					"source" : [ "obj-6", 0 ]
				}

			}
, 			{
				"patchline" : 				{
					"destination" : [ "obj-9", 0 ],
					"source" : [ "obj-7", 0 ]
				}

			}
, 			{
				"patchline" : 				{
					"destination" : [ "obj-10", 0 ],
					"source" : [ "obj-8", 0 ]
				}

			}
, 			{
				"patchline" : 				{
					"destination" : [ "obj-12", 0 ],
					"source" : [ "obj-9", 0 ]
				}

			}
 ],
		"dependency_cache" : [ 			{
				"name" : "jit.+.mxo",
				"type" : "iLaX"
			}
, 			{
				"name" : "jit.sqrt.mxo",
				"type" : "iLaX"
			}
, 			{
				"name" : "jit.atan2.mxo",
				"type" : "iLaX"
			}
, 			{
				"name" : "jit.cos.mxo",
				"type" : "iLaX"
			}
, 			{
				"name" : "jit.*.mxo",
				"type" : "iLaX"
			}
, 			{
				"name" : "jit.sin.mxo",
				"type" : "iLaX"
			}
, 			{
				"name" : "jit.>.mxo",
				"type" : "iLaX"
			}
 ],
		"autosave" : 0
	}

}
